<?xml version="1.0" standalone="no"?>
<!DOCTYPE svg PUBLIC "-//W3C//DTD SVG 20010904//EN"
 "http://www.w3.org/TR/2001/REC-SVG-20010904/DTD/svg10.dtd">
<svg version="1.0" xmlns="http://www.w3.org/2000/svg"
 width="500.000000pt" height="500.000000pt" viewBox="0 0 500.000000 500.000000"
 preserveAspectRatio="xMidYMid meet">

<g transform="translate(0.000000,500.000000) scale(0.100000,-0.100000)"
fill="#000000" stroke="none">
<path d="M2205 4655 c-401 -64 -713 -194 -1023 -427 -462 -348 -774 -896 -843
-1481 -17 -148 -7 -494 20 -632 87 -460 305 -865 633 -1180 349 -335 774 -536
1260 -595 144 -18 483 -8 628 18 422 76 810 273 1120 569 360 342 598 816 659
1313 16 121 13 427 -4 545 -93 657 -458 1220 -1012 1564 -216 134 -484 238
-739 287 -122 24 -168 27 -374 30 -168 2 -261 -1 -325 -11z m555 -26 c729 -87
1373 -554 1686 -1224 133 -285 196 -575 196 -905 0 -263 -32 -462 -114 -698
-247 -720 -861 -1256 -1611 -1407 -245 -49 -589 -49 -834 0 -823 166 -1483
801 -1671 1610 -54 229 -71 537 -43 755 123 950 829 1688 1773 1856 169 30
431 35 618 13z"/>
<path d="M2482 4444 c-32 -22 -32 -106 0 -128 33 -23 64 -19 87 10 28 36 27
79 -4 109 -28 29 -51 31 -83 9z m63 -64 c0 -41 -2 -45 -25 -45 -21 0 -26 5
-28 33 -4 37 13 64 37 60 12 -2 16 -15 16 -48z"/>
<path d="M2270 4437 c-21 -10 -26 -21 -28 -61 -4 -55 16 -86 55 -86 32 0 63
17 63 35 0 18 -14 19 -39 3 -27 -17 -51 5 -51 47 0 37 20 51 50 35 25 -13 30
-13 30 5 0 13 -29 35 -47 35 -4 0 -19 -6 -33 -13z"/>
<path d="M2704 4427 c-3 -8 -6 -40 -7 -73 -2 -58 -2 -59 27 -62 62 -7 96 22
96 83 0 46 -101 91 -116 52z m71 -62 c0 -37 -2 -40 -29 -43 -23 -3 -28 0 -22
13 3 9 6 30 6 47 0 25 3 29 23 26 19 -3 22 -9 22 -43z"/>
<path d="M2050 4401 c-22 -7 -25 -12 -23 -52 0 -24 6 -57 12 -72 10 -26 14
-28 44 -22 55 12 81 25 71 35 -5 5 -25 5 -47 1 -29 -7 -37 -6 -37 5 0 8 11 19
25 24 36 14 31 32 -7 28 -47 -5 -46 19 1 32 23 6 41 15 41 20 0 11 -43 12 -80
1z"/>
<path d="M2935 4388 c-11 -34 -25 -95 -25 -110 0 -17 52 -38 93 -38 31 0 13
24 -26 33 -25 6 -34 13 -30 23 4 11 14 13 34 9 37 -8 41 20 4 29 -14 4 -25 13
-25 21 0 11 7 14 25 9 41 -10 58 -10 62 2 2 7 -16 16 -41 23 -57 14 -66 14
-71 -1z"/>
<path d="M1824 4327 c-24 -21 -26 -28 -20 -61 10 -53 40 -80 79 -72 46 9 60
28 52 65 -6 27 -11 32 -33 29 -33 -4 -40 -24 -11 -31 19 -5 20 -8 9 -21 -20
-26 -40 -18 -56 20 -18 43 -4 69 31 60 27 -7 38 3 24 21 -17 20 -45 16 -75
-10z"/>
<path d="M3142 4258 c2 -12 10 -23 18 -23 22 0 19 39 -3 43 -15 3 -18 -1 -15
-20z"/>
<path d="M1608 4234 c-16 -8 -28 -17 -28 -20 0 -13 61 -124 68 -124 17 0 21
13 11 32 -17 31 3 43 40 23 30 -15 51 -13 51 4 0 4 -12 13 -26 20 -18 8 -25
17 -21 30 12 47 -39 66 -95 35z m62 -28 c0 -18 -30 -30 -43 -17 -5 5 -6 14 -3
20 10 16 46 13 46 -3z"/>
<path d="M3413 4144 c-18 -31 -33 -60 -33 -65 0 -17 29 -9 40 11 9 17 14 18
35 8 35 -16 45 -1 15 22 -20 15 -23 21 -12 32 10 10 18 9 41 -5 27 -15 41 -14
41 4 0 9 -73 49 -87 49 -4 0 -23 -25 -40 -56z"/>
<path d="M1412 4124 c-28 -19 -28 -56 -1 -100 17 -27 27 -34 53 -34 59 0 85
58 49 110 -30 45 -61 52 -101 24z m72 -40 c22 -33 17 -59 -12 -59 -27 0 -58
44 -49 69 10 24 43 19 61 -10z"/>
<path d="M3591 4041 c-41 -57 -16 -121 45 -121 29 0 74 54 74 89 0 62 -82 84
-119 32z m87 -26 c4 -27 -39 -68 -61 -59 -21 8 -21 28 -1 60 20 30 58 29 62
-1z"/>
<path d="M2305 4034 c-311 -46 -591 -173 -820 -371 -248 -214 -422 -510 -497
-844 -20 -91 -23 -130 -23 -319 0 -235 9 -298 67 -480 177 -553 675 -971 1251
-1049 101 -14 333 -14 434 0 165 22 308 67 475 150 445 220 756 645 835 1143
23 150 14 435 -20 576 -126 526 -481 926 -990 1114 -165 62 -265 78 -487 81
-107 2 -208 1 -225 -1z m330 -28 c105 -7 266 -42 387 -84 359 -127 667 -406
838 -757 300 -617 153 -1351 -360 -1802 -312 -275 -677 -396 -1118 -372 -583
33 -1125 452 -1315 1019 -175 518 -64 1077 294 1488 215 248 492 409 824 482
95 21 282 39 335 34 14 -2 66 -5 115 -8z"/>
<path d="M2437 3799 c-9 -6 -33 -42 -53 -80 -29 -59 -38 -69 -54 -64 -33 11
-59 -4 -80 -45 -25 -49 -25 -55 2 -82 l21 -21 -46 -93 -46 -93 144 -75 c80
-42 148 -76 153 -76 4 0 28 41 52 90 24 50 48 90 53 90 5 0 276 -137 602 -305
327 -168 606 -305 620 -305 45 0 87 100 53 127 -7 6 -105 58 -218 116 -506
259 -937 481 -962 493 l-27 14 34 72 c56 117 53 124 -86 194 -112 56 -131 61
-162 43z"/>
<path d="M2057 2363 c-4 -3 -7 -18 -7 -33 0 -27 -1 -27 -82 -33 -46 -4 -253
-7 -460 -7 -296 0 -378 -3 -378 -12 0 -27 61 -117 106 -157 105 -92 222 -137
519 -199 215 -45 286 -68 354 -112 59 -37 96 -102 117 -200 25 -121 -8 -185
-127 -244 -40 -20 -78 -36 -85 -36 -11 0 -14 -18 -14 -70 l0 -70 181 2 182 3
12 48 c14 56 62 111 120 138 60 28 252 27 310 -1 58 -28 95 -70 116 -132 l18
-53 158 0 158 0 0 59 0 59 -75 52 c-147 101 -197 195 -188 355 4 65 11 97 31
136 66 131 234 214 565 280 22 4 23 7 20 117 l-3 112 -771 3 c-424 1 -774 -1
-777 -5z m-588 -237 c96 -39 254 -75 375 -85 60 -5 113 -14 118 -19 5 -5 8
-22 6 -38 -3 -26 -7 -29 -43 -32 -165 -14 -454 91 -590 214 l-50 45 60 -30
c33 -16 89 -41 124 -55z"/>
<path d="M1243 3994 c-18 -14 -33 -31 -33 -39 0 -21 85 -109 98 -101 9 5 8 13
-3 30 -14 21 -14 25 0 36 16 13 20 40 6 40 -5 0 -14 -7 -21 -15 -16 -19 -29
-19 -36 0 -4 9 4 23 20 36 14 11 24 25 21 30 -9 14 -17 11 -52 -17z"/>
<path d="M3777 3892 c-26 -26 -47 -53 -47 -60 0 -17 25 -15 40 3 19 23 32 7
28 -33 -2 -29 1 -38 15 -40 13 -3 17 3 17 27 0 23 5 30 21 33 34 5 47 33 29
65 -8 14 -24 32 -35 39 -19 13 -25 10 -68 -34z m83 -34 c0 -11 -21 -10 -39 1
-8 5 -11 16 -7 26 6 17 8 17 26 0 11 -10 20 -22 20 -27z"/>
<path d="M3920 3720 c-26 -25 -31 -35 -26 -58 7 -28 40 -62 60 -62 6 0 22 9
35 19 20 15 22 21 12 39 -15 29 -45 30 -36 2 5 -15 2 -20 -13 -20 -31 0 -35
28 -7 56 13 13 30 24 38 24 19 0 41 -26 33 -39 -9 -14 14 -25 26 -13 5 5 7 19
3 31 -18 58 -75 68 -125 21z"/>
<path d="M1047 3714 c-16 -16 -7 -44 14 -44 15 0 20 5 17 22 -3 22 -19 33 -31
22z"/>
<path d="M880 3589 c-16 -23 -30 -46 -30 -50 0 -9 105 -79 118 -79 7 0 62 82
62 94 0 18 -31 2 -47 -24 -9 -16 -21 -30 -25 -30 -16 0 -18 21 -3 44 11 17 13
26 5 31 -6 4 -13 5 -14 4 -1 -2 -9 -14 -17 -26 -10 -14 -19 -19 -28 -13 -11 6
-10 15 8 43 32 52 8 56 -29 6z"/>
<path d="M4071 3549 c-67 -43 -66 -43 -31 -94 22 -32 35 -44 42 -37 7 7 3 21
-12 42 -18 25 -20 34 -10 40 9 5 20 0 33 -16 25 -32 41 -21 22 16 -11 21 -12
31 -4 36 11 6 48 -31 49 -48 0 -9 30 -11 30 -2 0 15 -53 94 -63 93 -7 0 -32
-14 -56 -30z"/>
<path d="M760 3378 c-11 -18 -20 -39 -20 -45 0 -14 90 -63 114 -63 17 0 46 48
46 75 0 29 -46 65 -85 65 -29 0 -39 -6 -55 -32z m88 -14 c24 -17 26 -22 13
-43 -8 -13 -15 -12 -50 3 -34 16 -39 21 -30 37 12 23 37 24 67 3z"/>
<path d="M4190 3369 c-64 -25 -79 -78 -35 -119 20 -18 28 -21 37 -12 10 10 7
16 -10 28 -29 20 -28 40 3 60 34 22 59 15 65 -21 7 -39 24 -39 28 0 5 52 -38
84 -88 64z"/>
<path d="M683 3192 c-6 -4 -16 -19 -22 -33 -14 -38 6 -69 54 -86 36 -12 42
-12 65 5 37 28 39 74 4 101 -26 21 -78 28 -101 13z m72 -34 c27 -12 34 -45 10
-54 -22 -9 -65 4 -71 21 -8 21 3 45 20 45 8 0 27 -5 41 -12z"/>
<path d="M4253 3155 c-37 -16 -51 -54 -35 -90 23 -51 119 -40 142 16 11 27 10
34 -7 57 -23 32 -55 37 -100 17z m75 -27 c21 -21 13 -39 -24 -54 -28 -12 -39
-12 -50 -3 -23 19 -16 39 19 54 40 18 40 18 55 3z"/>
<path d="M605 2956 c-19 -28 -11 -72 14 -85 9 -5 33 -12 53 -16 29 -6 40 -3
57 14 24 24 28 73 6 91 -16 13 -17 11 -19 -35 -1 -25 -6 -31 -28 -33 -53 -6
-86 30 -53 58 19 16 19 30 0 30 -8 0 -22 -11 -30 -24z"/>
<path d="M4355 2939 c-87 -19 -85 -18 -85 -50 0 -32 38 -79 64 -79 23 0 70 20
78 33 12 19 9 72 -4 89 -10 12 -22 13 -53 7z m33 -56 c-3 -24 -8 -28 -40 -31
-22 -2 -39 1 -39 7 -5 31 -2 36 26 42 53 12 57 11 53 -18z"/>
<path d="M567 2763 c-4 -3 -7 -30 -7 -58 l0 -52 66 -7 c37 -4 69 -4 72 -1 10
10 7 100 -3 103 -5 1 -11 -13 -13 -33 -4 -45 -32 -49 -32 -5 0 20 -5 30 -15
30 -10 0 -15 -10 -15 -30 0 -20 -5 -30 -15 -30 -11 0 -15 12 -15 45 0 42 -7
54 -23 38z"/>
<path d="M4321 2699 c-18 -7 -22 -14 -17 -32 3 -12 6 -34 6 -49 0 -19 5 -28
16 -28 14 0 16 7 11 40 -4 34 -2 40 13 40 13 0 20 -9 22 -27 4 -34 23 -28 23
7 0 42 30 31 33 -12 2 -25 8 -38 18 -38 15 0 17 15 8 73 l-7 37 -51 -1 c-28 0
-62 -5 -75 -10z"/>
<path d="M617 2534 c-11 -12 -8 -54 4 -54 7 0 18 8 25 18 12 16 13 16 19 0 13
-33 -2 -49 -42 -46 -37 3 -38 4 -36 41 2 32 0 38 -15 35 -23 -4 -29 -79 -8
-97 17 -14 71 -17 105 -6 25 8 37 48 25 84 -7 19 -17 27 -40 29 -16 2 -33 0
-37 -4z"/>
<path d="M4362 2458 c2 -13 10 -23 18 -23 8 0 16 10 18 23 3 17 -2 22 -18 22
-16 0 -21 -5 -18 -22z"/>
<path d="M669 2311 c-17 -13 -30 -17 -40 -10 -38 24 -72 -15 -62 -74 5 -36 7
-37 47 -36 59 2 99 12 104 27 2 8 -7 12 -27 12 -38 0 -39 15 -4 52 34 36 20
59 -18 29z m-41 -69 c2 -14 -2 -22 -12 -22 -19 0 -29 17 -22 36 8 22 30 12 34
-14z"/>
<path d="M4286 2181 c-4 -6 4 -15 18 -21 20 -7 26 -17 26 -40 0 -36 17 -40 26
-5 4 15 13 25 24 25 15 0 17 -6 13 -40 -4 -25 -2 -40 5 -40 15 0 19 8 27 57 6
39 5 44 -18 52 -43 17 -114 24 -121 12z"/>
<path d="M642 2080 c-32 -13 -46 -55 -29 -88 11 -24 18 -27 66 -27 40 1 57 6
67 20 32 44 3 105 -49 104 -18 0 -42 -4 -55 -9z m83 -50 c0 -32 -57 -52 -82
-28 -18 18 -10 35 21 48 37 16 61 8 61 -20z"/>
<path d="M4243 1975 c-29 -20 -31 -75 -5 -98 29 -26 78 -32 107 -13 34 22 35
79 2 101 -37 24 -79 28 -104 10z m85 -38 c6 -5 12 -17 12 -27 0 -23 -18 -29
-57 -18 -26 7 -33 14 -33 32 0 14 6 26 13 29 15 5 48 -3 65 -16z"/>
<path d="M737 1854 c-3 -3 -2 -16 3 -29 5 -13 6 -26 3 -29 -14 -14 -32 -4 -42
24 -10 31 -31 41 -31 15 0 -9 7 -32 15 -51 17 -41 24 -41 110 -4 50 22 53 46
4 36 -21 -4 -29 -2 -29 8 0 16 -24 38 -33 30z"/>
<path d="M4160 1766 c0 -8 9 -18 20 -21 32 -10 23 -32 -17 -42 -51 -12 -58
-37 -9 -31 25 3 36 0 36 -9 0 -21 37 -35 61 -23 18 10 56 77 47 85 -2 1 -26
14 -55 29 -59 29 -83 33 -83 12z m94 -55 c9 -14 -4 -41 -20 -41 -8 0 -14 8
-14 18 0 29 22 43 34 23z"/>
<path d="M4054 1562 c-19 -12 -35 -52 -29 -71 3 -10 16 -23 29 -29 20 -9 27
-7 41 8 21 23 11 47 -11 29 -22 -18 -42 4 -24 26 16 19 34 19 65 -1 32 -21 32
-39 -1 -60 -33 -22 -17 -43 20 -26 27 12 42 49 32 79 -12 37 -91 66 -122 45z"/>
<path d="M882 1528 c2 -12 10 -23 18 -23 22 0 19 39 -3 43 -15 3 -18 -1 -15
-20z"/>
<path d="M1010 1439 c0 -6 9 -22 20 -36 11 -14 20 -30 20 -34 0 -16 -27 -9
-45 11 -24 27 -40 14 -20 -17 24 -36 5 -50 -25 -18 -25 26 -40 32 -40 14 0
-14 50 -79 61 -79 15 0 109 73 109 85 0 14 -59 85 -71 85 -5 0 -9 -5 -9 -11z"/>
<path d="M3916 1368 c-26 -30 -33 -45 -25 -52 7 -8 19 -1 39 24 25 30 30 33
36 17 4 -11 0 -25 -10 -36 -13 -14 -14 -21 -5 -27 7 -4 20 2 31 16 14 17 22
20 30 12 8 -8 5 -18 -11 -38 -24 -30 -27 -44 -8 -44 13 0 67 63 67 78 0 7 -33
36 -96 84 -8 6 -24 -6 -48 -34z"/>
<path d="M1107 1232 c-35 -36 -34 -64 3 -104 l29 -33 53 53 53 53 -33 29 c-41
37 -71 38 -105 2z m81 -14 c18 -18 -46 -82 -65 -67 -18 16 -16 29 9 56 24 26
38 29 56 11z"/>
<path d="M3769 1209 c-11 -11 -19 -30 -17 -42 4 -28 21 -25 28 5 8 32 41 34
69 4 28 -29 23 -52 -14 -66 -28 -11 -25 -30 4 -30 24 0 61 41 61 69 0 31 -52
81 -84 81 -14 0 -35 -9 -47 -21z"/>
<path d="M1279 1081 c-52 -52 -30 -121 39 -121 25 0 36 8 57 37 31 47 31 58 0
88 -32 33 -60 31 -96 -4z m79 -24 c6 -29 -26 -69 -51 -65 -30 4 -33 35 -6 64
26 28 52 28 57 1z"/>
<path d="M3622 1080 c-33 -14 -45 -54 -27 -90 20 -39 58 -63 84 -55 58 18 68
75 22 124 -30 33 -42 36 -79 21z m57 -46 c25 -32 26 -47 6 -64 -13 -11 -20 -9
-40 10 -36 34 -32 75 7 79 4 1 16 -11 27 -25z"/>
<path d="M1475 970 c-6 -10 4 -16 40 -22 26 -4 30 -31 9 -62 -20 -31 -54 -34
-61 -6 -7 26 -33 26 -33 1 0 -24 36 -51 68 -51 56 0 95 96 54 133 -20 19 -67
23 -77 7z"/>
<path d="M3433 944 c-18 -14 -33 -34 -33 -45 0 -34 29 -78 56 -85 28 -7 94 18
94 36 0 19 -62 120 -73 120 -7 0 -27 -12 -44 -26z m57 -46 c24 -39 21 -53 -9
-53 -31 0 -60 47 -42 69 19 23 29 20 51 -16z"/>
<path d="M1670 874 c0 -8 16 -22 35 -30 22 -9 32 -19 29 -28 -4 -11 -11 -12
-34 -3 -16 6 -33 8 -37 3 -8 -7 16 -30 41 -39 8 -3 8 -8 0 -17 -9 -9 -18 -8
-42 4 -38 19 -42 20 -42 3 0 -11 78 -57 95 -57 7 0 55 109 55 124 0 7 -20 22
-45 34 -54 26 -55 26 -55 6z"/>
<path d="M3228 843 c-21 -9 -38 -22 -38 -29 0 -18 14 -18 49 1 27 14 41 11 41
-7 0 -5 -11 -14 -25 -20 -14 -6 -24 -16 -22 -22 5 -12 10 -12 45 -1 34 10 28
-20 -8 -35 -28 -12 -42 -40 -20 -40 21 0 90 41 90 53 0 25 -49 117 -62 116 -7
-1 -30 -8 -50 -16z"/>
<path d="M1858 766 c-6 -14 -8 -32 -5 -40 7 -17 57 -22 57 -6 0 6 -4 10 -10
10 -5 0 -10 7 -10 15 0 17 35 21 45 5 4 -6 1 -26 -5 -45 -9 -27 -17 -35 -35
-35 -12 0 -25 7 -29 15 -8 21 -26 19 -26 -3 0 -27 20 -42 55 -42 39 0 51 9 64
43 25 64 2 107 -58 107 -24 0 -34 -6 -43 -24z"/>
<path d="M2075 730 c-3 -5 -1 -19 5 -31 9 -16 8 -24 -4 -38 -32 -36 -9 -70 57
-85 32 -8 42 10 53 95 6 42 4 51 -7 47 -8 -2 -15 -14 -17 -26 -5 -33 -30 -26
-49 13 -17 36 -27 43 -38 25z m68 -106 c-6 -17 -39 -19 -49 -3 -9 15 13 28 36
22 11 -3 16 -11 13 -19z"/>
<path d="M3064 725 c-7 -18 3 -35 21 -35 21 0 28 19 15 35 -16 19 -29 19 -36
0z"/>
<path d="M2307 682 c-10 -10 -18 -38 -19 -62 -2 -69 53 -102 102 -62 31 25 35
107 6 128 -27 19 -70 18 -89 -4z m71 -53 c3 -39 -15 -63 -42 -53 -33 13 -17
97 18 92 16 -2 22 -11 24 -39z"/>
<path d="M2584 675 c-3 -8 -3 -18 0 -24 4 -5 -6 -11 -21 -13 -39 -4 -42 -28
-4 -28 24 0 31 -4 31 -19 0 -15 -8 -21 -35 -23 -53 -5 -42 -23 13 -23 l47 0 3
73 c2 60 0 72 -13 72 -9 0 -18 -7 -21 -15z"/>
</g>
</svg>
